ISO-10303-21;
HEADER;
/* Generated by software containing ST-Developer
 * from STEP Tools, Inc. (www.steptools.com) 
 */
/* OPTION: strings as raw bytes, not using required /X/ escapes */

FILE_DESCRIPTION(
/* description */ ('Unknown',
'CAx-IF Rec.Pracs.---Representation and Presentation of Product Manufa
cturing Information (PMI)---4.0---2014-10-13',
'CAx-IF Rec.Pracs.---3D Tessellated Geometry---0.4---2014-09-14','2;1'),

/* implementation_level */ '2;1');

FILE_NAME(
/* name */ 'Asm1',
/* time_stamp */ '2026-08-17T20:02:26+08:00',
/* author */ ('Unknown'),
/* organization */ ('Unknown'),
/* preprocessor_version */ 'ST-DEVELOPER v20',
/* originating_system */ 'Solid Edge',
/* authorisation */ 'Unknown');

FILE_SCHEMA (('AP242_MANAGED_MODEL_BASED_3D_ENGINEERING_MIM_LF { 1 0 10303 442 1 1 4 }'));
ENDSEC;

DATA;
#10=CONTEXT_DEPENDENT_SHAPE_REPRESENTATION(#14,#794);
#11=CONTEXT_DEPENDENT_SHAPE_REPRESENTATION(#15,#796);
#12=NEXT_ASSEMBLY_USAGE_OCCURRENCE('Part2','Part2','Part2',#797,#798,'');
#13=NEXT_ASSEMBLY_USAGE_OCCURRENCE('Part3','Part3','Part3',#797,#799,'');
#14=(
REPRESENTATION_RELATIONSHIP(' ',' ',#483,#484)
REPRESENTATION_RELATIONSHIP_WITH_TRANSFORMATION(#16)
SHAPE_REPRESENTATION_RELATIONSHIP()
);
#15=(
REPRESENTATION_RELATIONSHIP(' ',' ',#485,#484)
REPRESENTATION_RELATIONSHIP_WITH_TRANSFORMATION(#17)
SHAPE_REPRESENTATION_RELATIONSHIP()
);
#16=ITEM_DEFINED_TRANSFORMATION(' ',' ',#486,#506);
#17=ITEM_DEFINED_TRANSFORMATION(' ',' ',#486,#531);
#18=CONSTRUCTIVE_GEOMETRY_REPRESENTATION_RELATIONSHIP(
'supplemental geometry','',#483,#20);
#19=CONSTRUCTIVE_GEOMETRY_REPRESENTATION_RELATIONSHIP(
'supplemental geometry','',#485,#21);
#20=CONSTRUCTIVE_GEOMETRY_REPRESENTATION('supplemental geometry',(#505),
#784);
#21=CONSTRUCTIVE_GEOMETRY_REPRESENTATION('supplemental geometry',(#530),
#785);
#22=SHAPE_REPRESENTATION_RELATIONSHIP('','',#483,#24);
#23=SHAPE_REPRESENTATION_RELATIONSHIP('','',#485,#25);
#24=ADVANCED_BREP_SHAPE_REPRESENTATION('',(#478),#784);
#25=ADVANCED_BREP_SHAPE_REPRESENTATION('',(#479),#785);
#26=CYLINDRICAL_SURFACE('',#501,5.);
#27=CYLINDRICAL_SURFACE('',#502,5.);
#28=CYLINDRICAL_SURFACE('',#503,5.);
#29=CYLINDRICAL_SURFACE('',#504,5.);
#30=CYLINDRICAL_SURFACE('',#521,5.);
#31=CYLINDRICAL_SURFACE('',#522,5.);
#32=CYLINDRICAL_SURFACE('',#523,5.);
#33=CYLINDRICAL_SURFACE('',#524,5.);
#34=CIRCLE('',#492,5.);
#35=CIRCLE('',#493,5.);
#36=CIRCLE('',#494,5.);
#37=CIRCLE('',#495,5.);
#38=CIRCLE('',#497,5.);
#39=CIRCLE('',#498,5.);
#40=CIRCLE('',#499,5.);
#41=CIRCLE('',#500,5.);
#42=CIRCLE('',#508,5.);
#43=CIRCLE('',#509,5.);
#44=CIRCLE('',#510,5.);
#45=CIRCLE('',#511,5.);
#46=CIRCLE('',#517,5.);
#47=CIRCLE('',#518,5.);
#48=CIRCLE('',#519,5.);
#49=CIRCLE('',#520,5.);
#50=ORIENTED_EDGE('',*,*,#154,.F.);
#51=ORIENTED_EDGE('',*,*,#155,.F.);
#52=ORIENTED_EDGE('',*,*,#156,.T.);
#53=ORIENTED_EDGE('',*,*,#157,.T.);
#54=ORIENTED_EDGE('',*,*,#158,.F.);
#55=ORIENTED_EDGE('',*,*,#157,.F.);
#56=ORIENTED_EDGE('',*,*,#159,.T.);
#57=ORIENTED_EDGE('',*,*,#160,.T.);
#58=ORIENTED_EDGE('',*,*,#161,.F.);
#59=ORIENTED_EDGE('',*,*,#160,.F.);
#60=ORIENTED_EDGE('',*,*,#162,.T.);
#61=ORIENTED_EDGE('',*,*,#163,.T.);
#62=ORIENTED_EDGE('',*,*,#164,.F.);
#63=ORIENTED_EDGE('',*,*,#163,.F.);
#64=ORIENTED_EDGE('',*,*,#165,.T.);
#65=ORIENTED_EDGE('',*,*,#155,.T.);
#66=ORIENTED_EDGE('',*,*,#166,.F.);
#67=ORIENTED_EDGE('',*,*,#167,.F.);
#68=ORIENTED_EDGE('',*,*,#168,.F.);
#69=ORIENTED_EDGE('',*,*,#169,.F.);
#70=ORIENTED_EDGE('',*,*,#156,.F.);
#71=ORIENTED_EDGE('',*,*,#165,.F.);
#72=ORIENTED_EDGE('',*,*,#162,.F.);
#73=ORIENTED_EDGE('',*,*,#159,.F.);
#74=ORIENTED_EDGE('',*,*,#170,.F.);
#75=ORIENTED_EDGE('',*,*,#171,.F.);
#76=ORIENTED_EDGE('',*,*,#172,.F.);
#77=ORIENTED_EDGE('',*,*,#173,.F.);
#78=ORIENTED_EDGE('',*,*,#154,.T.);
#79=ORIENTED_EDGE('',*,*,#158,.T.);
#80=ORIENTED_EDGE('',*,*,#161,.T.);
#81=ORIENTED_EDGE('',*,*,#164,.T.);
#82=ORIENTED_EDGE('',*,*,#169,.T.);
#83=ORIENTED_EDGE('',*,*,#173,.T.);
#84=ORIENTED_EDGE('',*,*,#168,.T.);
#85=ORIENTED_EDGE('',*,*,#172,.T.);
#86=ORIENTED_EDGE('',*,*,#167,.T.);
#87=ORIENTED_EDGE('',*,*,#171,.T.);
#88=ORIENTED_EDGE('',*,*,#166,.T.);
#89=ORIENTED_EDGE('',*,*,#170,.T.);
#90=ORIENTED_EDGE('',*,*,#174,.F.);
#91=ORIENTED_EDGE('',*,*,#175,.F.);
#92=ORIENTED_EDGE('',*,*,#176,.F.);
#93=ORIENTED_EDGE('',*,*,#177,.F.);
#94=ORIENTED_EDGE('',*,*,#178,.F.);
#95=ORIENTED_EDGE('',*,*,#179,.F.);
#96=ORIENTED_EDGE('',*,*,#180,.F.);
#97=ORIENTED_EDGE('',*,*,#181,.F.);
#98=ORIENTED_EDGE('',*,*,#182,.F.);
#99=ORIENTED_EDGE('',*,*,#183,.F.);
#100=ORIENTED_EDGE('',*,*,#184,.F.);
#101=ORIENTED_EDGE('',*,*,#185,.F.);
#102=ORIENTED_EDGE('',*,*,#186,.F.);
#103=ORIENTED_EDGE('',*,*,#187,.F.);
#104=ORIENTED_EDGE('',*,*,#174,.T.);
#105=ORIENTED_EDGE('',*,*,#188,.T.);
#106=ORIENTED_EDGE('',*,*,#189,.F.);
#107=ORIENTED_EDGE('',*,*,#188,.F.);
#108=ORIENTED_EDGE('',*,*,#177,.T.);
#109=ORIENTED_EDGE('',*,*,#190,.T.);
#110=ORIENTED_EDGE('',*,*,#191,.F.);
#111=ORIENTED_EDGE('',*,*,#190,.F.);
#112=ORIENTED_EDGE('',*,*,#176,.T.);
#113=ORIENTED_EDGE('',*,*,#192,.T.);
#114=ORIENTED_EDGE('',*,*,#193,.F.);
#115=ORIENTED_EDGE('',*,*,#192,.F.);
#116=ORIENTED_EDGE('',*,*,#175,.T.);
#117=ORIENTED_EDGE('',*,*,#187,.T.);
#118=ORIENTED_EDGE('',*,*,#194,.F.);
#119=ORIENTED_EDGE('',*,*,#195,.F.);
#120=ORIENTED_EDGE('',*,*,#196,.F.);
#121=ORIENTED_EDGE('',*,*,#197,.F.);
#122=ORIENTED_EDGE('',*,*,#186,.T.);
#123=ORIENTED_EDGE('',*,*,#189,.T.);
#124=ORIENTED_EDGE('',*,*,#191,.T.);
#125=ORIENTED_EDGE('',*,*,#193,.T.);
#126=ORIENTED_EDGE('',*,*,#178,.T.);
#127=ORIENTED_EDGE('',*,*,#197,.T.);
#128=ORIENTED_EDGE('',*,*,#179,.T.);
#129=ORIENTED_EDGE('',*,*,#196,.T.);
#130=ORIENTED_EDGE('',*,*,#180,.T.);
#131=ORIENTED_EDGE('',*,*,#195,.T.);
#132=ORIENTED_EDGE('',*,*,#181,.T.);
#133=ORIENTED_EDGE('',*,*,#194,.T.);
#134=ORIENTED_EDGE('',*,*,#182,.T.);
#135=ORIENTED_EDGE('',*,*,#198,.F.);
#136=ORIENTED_EDGE('',*,*,#199,.F.);
#137=ORIENTED_EDGE('',*,*,#200,.T.);
#138=ORIENTED_EDGE('',*,*,#185,.T.);
#139=ORIENTED_EDGE('',*,*,#201,.F.);
#140=ORIENTED_EDGE('',*,*,#202,.F.);
#141=ORIENTED_EDGE('',*,*,#198,.T.);
#142=ORIENTED_EDGE('',*,*,#184,.T.);
#143=ORIENTED_EDGE('',*,*,#203,.F.);
#144=ORIENTED_EDGE('',*,*,#204,.F.);
#145=ORIENTED_EDGE('',*,*,#201,.T.);
#146=ORIENTED_EDGE('',*,*,#183,.T.);
#147=ORIENTED_EDGE('',*,*,#200,.F.);
#148=ORIENTED_EDGE('',*,*,#205,.F.);
#149=ORIENTED_EDGE('',*,*,#203,.T.);
#150=ORIENTED_EDGE('',*,*,#199,.T.);
#151=ORIENTED_EDGE('',*,*,#202,.T.);
#152=ORIENTED_EDGE('',*,*,#204,.T.);
#153=ORIENTED_EDGE('',*,*,#205,.T.);
#154=EDGE_CURVE('',#206,#207,#246,.T.);
#155=EDGE_CURVE('',#208,#206,#247,.T.);
#156=EDGE_CURVE('',#208,#209,#248,.T.);
#157=EDGE_CURVE('',#209,#207,#249,.T.);
#158=EDGE_CURVE('',#207,#210,#250,.T.);
#159=EDGE_CURVE('',#209,#211,#251,.T.);
#160=EDGE_CURVE('',#211,#210,#252,.T.);
#161=EDGE_CURVE('',#210,#212,#253,.T.);
#162=EDGE_CURVE('',#211,#213,#254,.T.);
#163=EDGE_CURVE('',#213,#212,#255,.T.);
#164=EDGE_CURVE('',#212,#206,#256,.T.);
#165=EDGE_CURVE('',#213,#208,#257,.T.);
#166=EDGE_CURVE('',#214,#214,#34,.T.);
#167=EDGE_CURVE('',#215,#215,#35,.T.);
#168=EDGE_CURVE('',#216,#216,#36,.T.);
#169=EDGE_CURVE('',#217,#217,#37,.T.);
#170=EDGE_CURVE('',#218,#218,#38,.T.);
#171=EDGE_CURVE('',#219,#219,#39,.T.);
#172=EDGE_CURVE('',#220,#220,#40,.T.);
#173=EDGE_CURVE('',#221,#221,#41,.T.);
#174=EDGE_CURVE('',#222,#223,#258,.T.);
#175=EDGE_CURVE('',#224,#222,#259,.T.);
#176=EDGE_CURVE('',#225,#224,#260,.T.);
#177=EDGE_CURVE('',#223,#225,#261,.T.);
#178=EDGE_CURVE('',#226,#226,#42,.T.);
#179=EDGE_CURVE('',#227,#227,#43,.T.);
#180=EDGE_CURVE('',#228,#228,#44,.T.);
#181=EDGE_CURVE('',#229,#229,#45,.T.);
#182=EDGE_CURVE('',#230,#231,#262,.T.);
#183=EDGE_CURVE('',#232,#230,#263,.T.);
#184=EDGE_CURVE('',#233,#232,#264,.T.);
#185=EDGE_CURVE('',#231,#233,#265,.T.);
#186=EDGE_CURVE('',#234,#235,#266,.T.);
#187=EDGE_CURVE('',#222,#234,#267,.T.);
#188=EDGE_CURVE('',#223,#235,#268,.T.);
#189=EDGE_CURVE('',#235,#236,#269,.T.);
#190=EDGE_CURVE('',#225,#236,#270,.T.);
#191=EDGE_CURVE('',#236,#237,#271,.T.);
#192=EDGE_CURVE('',#224,#237,#272,.T.);
#193=EDGE_CURVE('',#237,#234,#273,.T.);
#194=EDGE_CURVE('',#238,#238,#46,.T.);
#195=EDGE_CURVE('',#239,#239,#47,.T.);
#196=EDGE_CURVE('',#240,#240,#48,.T.);
#197=EDGE_CURVE('',#241,#241,#49,.T.);
#198=EDGE_CURVE('',#242,#231,#274,.T.);
#199=EDGE_CURVE('',#243,#242,#275,.T.);
#200=EDGE_CURVE('',#243,#230,#276,.T.);
#201=EDGE_CURVE('',#244,#233,#277,.T.);
#202=EDGE_CURVE('',#242,#244,#278,.T.);
#203=EDGE_CURVE('',#245,#232,#279,.T.);
#204=EDGE_CURVE('',#244,#245,#280,.T.);
#205=EDGE_CURVE('',#245,#243,#281,.T.);
#206=VERTEX_POINT('',#663);
#207=VERTEX_POINT('',#664);
#208=VERTEX_POINT('',#666);
#209=VERTEX_POINT('',#668);
#210=VERTEX_POINT('',#672);
#211=VERTEX_POINT('',#674);
#212=VERTEX_POINT('',#678);
#213=VERTEX_POINT('',#680);
#214=VERTEX_POINT('',#687);
#215=VERTEX_POINT('',#689);
#216=VERTEX_POINT('',#691);
#217=VERTEX_POINT('',#693);
#218=VERTEX_POINT('',#696);
#219=VERTEX_POINT('',#698);
#220=VERTEX_POINT('',#700);
#221=VERTEX_POINT('',#702);
#222=VERTEX_POINT('',#711);
#223=VERTEX_POINT('',#712);
#224=VERTEX_POINT('',#714);
#225=VERTEX_POINT('',#716);
#226=VERTEX_POINT('',#719);
#227=VERTEX_POINT('',#721);
#228=VERTEX_POINT('',#723);
#229=VERTEX_POINT('',#725);
#230=VERTEX_POINT('',#727);
#231=VERTEX_POINT('',#728);
#232=VERTEX_POINT('',#730);
#233=VERTEX_POINT('',#732);
#234=VERTEX_POINT('',#736);
#235=VERTEX_POINT('',#737);
#236=VERTEX_POINT('',#742);
#237=VERTEX_POINT('',#746);
#238=VERTEX_POINT('',#752);
#239=VERTEX_POINT('',#754);
#240=VERTEX_POINT('',#756);
#241=VERTEX_POINT('',#758);
#242=VERTEX_POINT('',#765);
#243=VERTEX_POINT('',#767);
#244=VERTEX_POINT('',#771);
#245=VERTEX_POINT('',#775);
#246=LINE('',#662,#282);
#247=LINE('',#665,#283);
#248=LINE('',#667,#284);
#249=LINE('',#669,#285);
#250=LINE('',#671,#286);
#251=LINE('',#673,#287);
#252=LINE('',#675,#288);
#253=LINE('',#677,#289);
#254=LINE('',#679,#290);
#255=LINE('',#681,#291);
#256=LINE('',#683,#292);
#257=LINE('',#684,#293);
#258=LINE('',#710,#294);
#259=LINE('',#713,#295);
#260=LINE('',#715,#296);
#261=LINE('',#717,#297);
#262=LINE('',#726,#298);
#263=LINE('',#729,#299);
#264=LINE('',#731,#300);
#265=LINE('',#733,#301);
#266=LINE('',#735,#302);
#267=LINE('',#738,#303);
#268=LINE('',#739,#304);
#269=LINE('',#741,#305);
#270=LINE('',#743,#306);
#271=LINE('',#745,#307);
#272=LINE('',#747,#308);
#273=LINE('',#749,#309);
#274=LINE('',#764,#310);
#275=LINE('',#766,#311);
#276=LINE('',#768,#312);
#277=LINE('',#770,#313);
#278=LINE('',#772,#314);
#279=LINE('',#774,#315);
#280=LINE('',#776,#316);
#281=LINE('',#778,#317);
#282=VECTOR('',#536,1000.);
#283=VECTOR('',#537,1000.);
#284=VECTOR('',#538,1000.);
#285=VECTOR('',#539,1000.);
#286=VECTOR('',#542,1000.);
#287=VECTOR('',#543,1000.);
#288=VECTOR('',#544,1000.);
#289=VECTOR('',#547,1000.);
#290=VECTOR('',#548,1000.);
#291=VECTOR('',#549,1000.);
#292=VECTOR('',#552,1000.);
#293=VECTOR('',#553,1000.);
#294=VECTOR('',#588,1000.);
#295=VECTOR('',#589,1000.);
#296=VECTOR('',#590,1000.);
#297=VECTOR('',#591,1000.);
#298=VECTOR('',#600,1000.);
#299=VECTOR('',#601,1000.);
#300=VECTOR('',#602,1000.);
#301=VECTOR('',#603,1000.);
#302=VECTOR('',#606,1000.);
#303=VECTOR('',#607,1000.);
#304=VECTOR('',#608,1000.);
#305=VECTOR('',#611,1000.);
#306=VECTOR('',#612,1000.);
#307=VECTOR('',#615,1000.);
#308=VECTOR('',#616,1000.);
#309=VECTOR('',#619,1000.);
#310=VECTOR('',#640,1000.);
#311=VECTOR('',#641,1000.);
#312=VECTOR('',#642,1000.);
#313=VECTOR('',#645,1000.);
#314=VECTOR('',#646,1000.);
#315=VECTOR('',#649,1000.);
#316=VECTOR('',#650,1000.);
#317=VECTOR('',#653,1000.);
#318=EDGE_LOOP('',(#50,#51,#52,#53));
#319=EDGE_LOOP('',(#54,#55,#56,#57));
#320=EDGE_LOOP('',(#58,#59,#60,#61));
#321=EDGE_LOOP('',(#62,#63,#64,#65));
#322=EDGE_LOOP('',(#66));
#323=EDGE_LOOP('',(#67));
#324=EDGE_LOOP('',(#68));
#325=EDGE_LOOP('',(#69));
#326=EDGE_LOOP('',(#70,#71,#72,#73));
#327=EDGE_LOOP('',(#74));
#328=EDGE_LOOP('',(#75));
#329=EDGE_LOOP('',(#76));
#330=EDGE_LOOP('',(#77));
#331=EDGE_LOOP('',(#78,#79,#80,#81));
#332=EDGE_LOOP('',(#82));
#333=EDGE_LOOP('',(#83));
#334=EDGE_LOOP('',(#84));
#335=EDGE_LOOP('',(#85));
#336=EDGE_LOOP('',(#86));
#337=EDGE_LOOP('',(#87));
#338=EDGE_LOOP('',(#88));
#339=EDGE_LOOP('',(#89));
#340=EDGE_LOOP('',(#90,#91,#92,#93));
#341=EDGE_LOOP('',(#94));
#342=EDGE_LOOP('',(#95));
#343=EDGE_LOOP('',(#96));
#344=EDGE_LOOP('',(#97));
#345=EDGE_LOOP('',(#98,#99,#100,#101));
#346=EDGE_LOOP('',(#102,#103,#104,#105));
#347=EDGE_LOOP('',(#106,#107,#108,#109));
#348=EDGE_LOOP('',(#110,#111,#112,#113));
#349=EDGE_LOOP('',(#114,#115,#116,#117));
#350=EDGE_LOOP('',(#118));
#351=EDGE_LOOP('',(#119));
#352=EDGE_LOOP('',(#120));
#353=EDGE_LOOP('',(#121));
#354=EDGE_LOOP('',(#122,#123,#124,#125));
#355=EDGE_LOOP('',(#126));
#356=EDGE_LOOP('',(#127));
#357=EDGE_LOOP('',(#128));
#358=EDGE_LOOP('',(#129));
#359=EDGE_LOOP('',(#130));
#360=EDGE_LOOP('',(#131));
#361=EDGE_LOOP('',(#132));
#362=EDGE_LOOP('',(#133));
#363=EDGE_LOOP('',(#134,#135,#136,#137));
#364=EDGE_LOOP('',(#138,#139,#140,#141));
#365=EDGE_LOOP('',(#142,#143,#144,#145));
#366=EDGE_LOOP('',(#146,#147,#148,#149));
#367=EDGE_LOOP('',(#150,#151,#152,#153));
#368=FACE_BOUND('',#318,.T.);
#369=FACE_BOUND('',#319,.T.);
#370=FACE_BOUND('',#320,.T.);
#371=FACE_BOUND('',#321,.T.);
#372=FACE_BOUND('',#322,.T.);
#373=FACE_BOUND('',#323,.T.);
#374=FACE_BOUND('',#324,.T.);
#375=FACE_BOUND('',#325,.T.);
#376=FACE_BOUND('',#326,.T.);
#377=FACE_BOUND('',#327,.T.);
#378=FACE_BOUND('',#328,.T.);
#379=FACE_BOUND('',#329,.T.);
#380=FACE_BOUND('',#330,.T.);
#381=FACE_BOUND('',#331,.T.);
#382=FACE_BOUND('',#332,.T.);
#383=FACE_BOUND('',#333,.T.);
#384=FACE_BOUND('',#334,.T.);
#385=FACE_BOUND('',#335,.T.);
#386=FACE_BOUND('',#336,.T.);
#387=FACE_BOUND('',#337,.T.);
#388=FACE_BOUND('',#338,.T.);
#389=FACE_BOUND('',#339,.T.);
#390=FACE_BOUND('',#340,.T.);
#391=FACE_BOUND('',#341,.T.);
#392=FACE_BOUND('',#342,.T.);
#393=FACE_BOUND('',#343,.T.);
#394=FACE_BOUND('',#344,.T.);
#395=FACE_BOUND('',#345,.T.);
#396=FACE_BOUND('',#346,.T.);
#397=FACE_BOUND('',#347,.T.);
#398=FACE_BOUND('',#348,.T.);
#399=FACE_BOUND('',#349,.T.);
#400=FACE_BOUND('',#350,.T.);
#401=FACE_BOUND('',#351,.T.);
#402=FACE_BOUND('',#352,.T.);
#403=FACE_BOUND('',#353,.T.);
#404=FACE_BOUND('',#354,.T.);
#405=FACE_BOUND('',#355,.T.);
#406=FACE_BOUND('',#356,.T.);
#407=FACE_BOUND('',#357,.T.);
#408=FACE_BOUND('',#358,.T.);
#409=FACE_BOUND('',#359,.T.);
#410=FACE_BOUND('',#360,.T.);
#411=FACE_BOUND('',#361,.T.);
#412=FACE_BOUND('',#362,.T.);
#413=FACE_BOUND('',#363,.T.);
#414=FACE_BOUND('',#364,.T.);
#415=FACE_BOUND('',#365,.T.);
#416=FACE_BOUND('',#366,.T.);
#417=FACE_BOUND('',#367,.T.);
#418=PLANE('',#487);
#419=PLANE('',#488);
#420=PLANE('',#489);
#421=PLANE('',#490);
#422=PLANE('',#491);
#423=PLANE('',#496);
#424=PLANE('',#507);
#425=PLANE('',#512);
#426=PLANE('',#513);
#427=PLANE('',#514);
#428=PLANE('',#515);
#429=PLANE('',#516);
#430=PLANE('',#525);
#431=PLANE('',#526);
#432=PLANE('',#527);
#433=PLANE('',#528);
#434=PLANE('',#529);
#435=ADVANCED_FACE('',(#368),#418,.T.);
#436=ADVANCED_FACE('',(#369),#419,.T.);
#437=ADVANCED_FACE('',(#370),#420,.T.);
#438=ADVANCED_FACE('',(#371),#421,.T.);
#439=ADVANCED_FACE('',(#372,#373,#374,#375,#376),#422,.F.);
#440=ADVANCED_FACE('',(#377,#378,#379,#380,#381),#423,.T.);
#441=ADVANCED_FACE('',(#382,#383),#26,.F.);
#442=ADVANCED_FACE('',(#384,#385),#27,.F.);
#443=ADVANCED_FACE('',(#386,#387),#28,.F.);
#444=ADVANCED_FACE('',(#388,#389),#29,.F.);
#445=ADVANCED_FACE('',(#390,#391,#392,#393,#394,#395),#424,.F.);
#446=ADVANCED_FACE('',(#396),#425,.T.);
#447=ADVANCED_FACE('',(#397),#426,.T.);
#448=ADVANCED_FACE('',(#398),#427,.T.);
#449=ADVANCED_FACE('',(#399),#428,.T.);
#450=ADVANCED_FACE('',(#400,#401,#402,#403,#404),#429,.T.);
#451=ADVANCED_FACE('',(#405,#406),#30,.F.);
#452=ADVANCED_FACE('',(#407,#408),#31,.F.);
#453=ADVANCED_FACE('',(#409,#410),#32,.F.);
#454=ADVANCED_FACE('',(#411,#412),#33,.F.);
#455=ADVANCED_FACE('',(#413),#430,.F.);
#456=ADVANCED_FACE('',(#414),#431,.F.);
#457=ADVANCED_FACE('',(#415),#432,.F.);
#458=ADVANCED_FACE('',(#416),#433,.F.);
#459=ADVANCED_FACE('',(#417),#434,.T.);
#460=CLOSED_SHELL('',(#435,#436,#437,#438,#439,#440,#441,#442,#443,#444));
#461=CLOSED_SHELL('',(#445,#446,#447,#448,#449,#450,#451,#452,#453,#454,
#455,#456,#457,#458,#459));
#462=STYLED_ITEM('',(#464),#478);
#463=STYLED_ITEM('',(#465),#479);
#464=PRESENTATION_STYLE_ASSIGNMENT((#466));
#465=PRESENTATION_STYLE_ASSIGNMENT((#467));
#466=SURFACE_STYLE_USAGE(.BOTH.,#468);
#467=SURFACE_STYLE_USAGE(.BOTH.,#469);
#468=SURFACE_SIDE_STYLE('',(#470));
#469=SURFACE_SIDE_STYLE('',(#471));
#470=SURFACE_STYLE_FILL_AREA(#472);
#471=SURFACE_STYLE_FILL_AREA(#473);
#472=FILL_AREA_STYLE('',(#474));
#473=FILL_AREA_STYLE('',(#475));
#474=FILL_AREA_STYLE_COLOUR('',#476);
#475=FILL_AREA_STYLE_COLOUR('',#477);
#476=COLOUR_RGB('',0.800000011920929,0.760330617427826,0.);
#477=COLOUR_RGB('',0.689706027507782,0.,0.699999988079071);
#478=MANIFOLD_SOLID_BREP('',#460);
#479=MANIFOLD_SOLID_BREP('',#461);
#480=SHAPE_DEFINITION_REPRESENTATION(#793,#483);
#481=SHAPE_DEFINITION_REPRESENTATION(#792,#484);
#482=SHAPE_DEFINITION_REPRESENTATION(#795,#485);
#483=SHAPE_REPRESENTATION('Part2',(#486),#784);
#484=SHAPE_REPRESENTATION('Asm1',(#486,#506,#531),#783);
#485=SHAPE_REPRESENTATION('Part3',(#486),#785);
#486=AXIS2_PLACEMENT_3D('',#660,#532,#533);
#487=AXIS2_PLACEMENT_3D('',#661,#534,#535);
#488=AXIS2_PLACEMENT_3D('',#670,#540,#541);
#489=AXIS2_PLACEMENT_3D('',#676,#545,#546);
#490=AXIS2_PLACEMENT_3D('',#682,#550,#551);
#491=AXIS2_PLACEMENT_3D('',#685,#554,#555);
#492=AXIS2_PLACEMENT_3D('',#686,#556,#557);
#493=AXIS2_PLACEMENT_3D('',#688,#558,#559);
#494=AXIS2_PLACEMENT_3D('',#690,#560,#561);
#495=AXIS2_PLACEMENT_3D('',#692,#562,#563);
#496=AXIS2_PLACEMENT_3D('',#694,#564,#565);
#497=AXIS2_PLACEMENT_3D('',#695,#566,#567);
#498=AXIS2_PLACEMENT_3D('',#697,#568,#569);
#499=AXIS2_PLACEMENT_3D('',#699,#570,#571);
#500=AXIS2_PLACEMENT_3D('',#701,#572,#573);
#501=AXIS2_PLACEMENT_3D('',#703,#574,#575);
#502=AXIS2_PLACEMENT_3D('',#704,#576,#577);
#503=AXIS2_PLACEMENT_3D('',#705,#578,#579);
#504=AXIS2_PLACEMENT_3D('',#706,#580,#581);
#505=AXIS2_PLACEMENT_3D('Base',#707,#582,#583);
#506=AXIS2_PLACEMENT_3D('',#708,#584,#585);
#507=AXIS2_PLACEMENT_3D('',#709,#586,#587);
#508=AXIS2_PLACEMENT_3D('',#718,#592,#593);
#509=AXIS2_PLACEMENT_3D('',#720,#594,#595);
#510=AXIS2_PLACEMENT_3D('',#722,#596,#597);
#511=AXIS2_PLACEMENT_3D('',#724,#598,#599);
#512=AXIS2_PLACEMENT_3D('',#734,#604,#605);
#513=AXIS2_PLACEMENT_3D('',#740,#609,#610);
#514=AXIS2_PLACEMENT_3D('',#744,#613,#614);
#515=AXIS2_PLACEMENT_3D('',#748,#617,#618);
#516=AXIS2_PLACEMENT_3D('',#750,#620,#621);
#517=AXIS2_PLACEMENT_3D('',#751,#622,#623);
#518=AXIS2_PLACEMENT_3D('',#753,#624,#625);
#519=AXIS2_PLACEMENT_3D('',#755,#626,#627);
#520=AXIS2_PLACEMENT_3D('',#757,#628,#629);
#521=AXIS2_PLACEMENT_3D('',#759,#630,#631);
#522=AXIS2_PLACEMENT_3D('',#760,#632,#633);
#523=AXIS2_PLACEMENT_3D('',#761,#634,#635);
#524=AXIS2_PLACEMENT_3D('',#762,#636,#637);
#525=AXIS2_PLACEMENT_3D('',#763,#638,#639);
#526=AXIS2_PLACEMENT_3D('',#769,#643,#644);
#527=AXIS2_PLACEMENT_3D('',#773,#647,#648);
#528=AXIS2_PLACEMENT_3D('',#777,#651,#652);
#529=AXIS2_PLACEMENT_3D('',#779,#654,#655);
#530=AXIS2_PLACEMENT_3D('Base',#780,#656,#657);
#531=AXIS2_PLACEMENT_3D('',#781,#658,#659);
#532=DIRECTION('',(0.,0.,1.));
#533=DIRECTION('',(1.,0.,0.));
#534=DIRECTION('',(-1.,0.,0.));
#535=DIRECTION('',(0.,0.,1.));
#536=DIRECTION('',(0.,1.,0.));
#537=DIRECTION('',(0.,0.,-1.));
#538=DIRECTION('',(0.,1.,0.));
#539=DIRECTION('',(0.,0.,-1.));
#540=DIRECTION('',(0.,1.,0.));
#541=DIRECTION('',(0.,0.,1.));
#542=DIRECTION('',(1.,0.,0.));
#543=DIRECTION('',(1.,0.,0.));
#544=DIRECTION('',(0.,0.,-1.));
#545=DIRECTION('',(1.,0.,0.));
#546=DIRECTION('',(0.,0.,-1.));
#547=DIRECTION('',(0.,-1.,0.));
#548=DIRECTION('',(0.,-1.,0.));
#549=DIRECTION('',(0.,0.,-1.));
#550=DIRECTION('',(0.,-1.,0.));
#551=DIRECTION('',(0.,0.,-1.));
#552=DIRECTION('',(-1.,0.,0.));
#553=DIRECTION('',(-1.,0.,0.));
#554=DIRECTION('',(0.,0.,-1.));
#555=DIRECTION('',(-1.,0.,0.));
#556=DIRECTION('',(0.,0.,1.));
#557=DIRECTION('',(1.,0.,0.));
#558=DIRECTION('',(0.,0.,1.));
#559=DIRECTION('',(1.,0.,0.));
#560=DIRECTION('',(0.,0.,1.));
#561=DIRECTION('',(1.,0.,0.));
#562=DIRECTION('',(0.,0.,1.));
#563=DIRECTION('',(1.,0.,0.));
#564=DIRECTION('',(0.,0.,-1.));
#565=DIRECTION('',(-1.,0.,0.));
#566=DIRECTION('',(0.,0.,-1.));
#567=DIRECTION('',(-1.,0.,0.));
#568=DIRECTION('',(0.,0.,-1.));
#569=DIRECTION('',(-1.,0.,0.));
#570=DIRECTION('',(0.,0.,-1.));
#571=DIRECTION('',(-1.,0.,0.));
#572=DIRECTION('',(0.,0.,-1.));
#573=DIRECTION('',(-1.,0.,0.));
#574=DIRECTION('',(0.,0.,1.));
#575=DIRECTION('',(1.,0.,0.));
#576=DIRECTION('',(0.,0.,1.));
#577=DIRECTION('',(1.,0.,0.));
#578=DIRECTION('',(0.,0.,1.));
#579=DIRECTION('',(1.,0.,0.));
#580=DIRECTION('',(0.,0.,1.));
#581=DIRECTION('',(1.,0.,0.));
#582=DIRECTION('',(0.,0.,1.));
#583=DIRECTION('',(1.,0.,0.));
#584=DIRECTION('',(0.,0.,1.));
#585=DIRECTION('',(1.,0.,0.));
#586=DIRECTION('',(0.,0.,-1.));
#587=DIRECTION('',(-1.,0.,0.));
#588=DIRECTION('',(0.,1.,0.));
#589=DIRECTION('',(-1.,0.,0.));
#590=DIRECTION('',(0.,-1.,0.));
#591=DIRECTION('',(1.,0.,0.));
#592=DIRECTION('',(0.,0.,1.));
#593=DIRECTION('',(1.,0.,0.));
#594=DIRECTION('',(0.,0.,1.));
#595=DIRECTION('',(1.,0.,0.));
#596=DIRECTION('',(0.,0.,1.));
#597=DIRECTION('',(1.,0.,0.));
#598=DIRECTION('',(0.,0.,1.));
#599=DIRECTION('',(1.,0.,0.));
#600=DIRECTION('',(0.,-1.,0.));
#601=DIRECTION('',(-1.,0.,0.));
#602=DIRECTION('',(0.,1.,0.));
#603=DIRECTION('',(1.,0.,0.));
#604=DIRECTION('',(-1.,0.,0.));
#605=DIRECTION('',(0.,0.,1.));
#606=DIRECTION('',(0.,1.,0.));
#607=DIRECTION('',(0.,0.,-1.));
#608=DIRECTION('',(0.,0.,-1.));
#609=DIRECTION('',(0.,1.,0.));
#610=DIRECTION('',(0.,0.,1.));
#611=DIRECTION('',(1.,0.,0.));
#612=DIRECTION('',(0.,0.,-1.));
#613=DIRECTION('',(1.,0.,0.));
#614=DIRECTION('',(0.,0.,-1.));
#615=DIRECTION('',(0.,-1.,0.));
#616=DIRECTION('',(0.,0.,-1.));
#617=DIRECTION('',(0.,-1.,0.));
#618=DIRECTION('',(0.,0.,-1.));
#619=DIRECTION('',(-1.,0.,0.));
#620=DIRECTION('',(0.,0.,-1.));
#621=DIRECTION('',(-1.,0.,0.));
#622=DIRECTION('',(0.,0.,-1.));
#623=DIRECTION('',(-1.,0.,0.));
#624=DIRECTION('',(0.,0.,-1.));
#625=DIRECTION('',(-1.,0.,0.));
#626=DIRECTION('',(0.,0.,-1.));
#627=DIRECTION('',(-1.,0.,0.));
#628=DIRECTION('',(0.,0.,-1.));
#629=DIRECTION('',(-1.,0.,0.));
#630=DIRECTION('',(0.,0.,1.));
#631=DIRECTION('',(1.,0.,0.));
#632=DIRECTION('',(0.,0.,1.));
#633=DIRECTION('',(1.,0.,0.));
#634=DIRECTION('',(0.,0.,1.));
#635=DIRECTION('',(1.,0.,0.));
#636=DIRECTION('',(0.,0.,1.));
#637=DIRECTION('',(1.,0.,0.));
#638=DIRECTION('',(1.,0.,0.));
#639=DIRECTION('',(0.,0.,-1.));
#640=DIRECTION('',(0.,0.,-1.));
#641=DIRECTION('',(0.,-1.,0.));
#642=DIRECTION('',(0.,0.,-1.));
#643=DIRECTION('',(0.,1.,0.));
#644=DIRECTION('',(0.,0.,1.));
#645=DIRECTION('',(0.,0.,-1.));
#646=DIRECTION('',(1.,0.,0.));
#647=DIRECTION('',(-1.,0.,0.));
#648=DIRECTION('',(0.,0.,1.));
#649=DIRECTION('',(0.,0.,-1.));
#650=DIRECTION('',(0.,1.,0.));
#651=DIRECTION('',(0.,-1.,0.));
#652=DIRECTION('',(0.,0.,-1.));
#653=DIRECTION('',(-1.,0.,0.));
#654=DIRECTION('',(0.,0.,1.));
#655=DIRECTION('',(1.,0.,0.));
#656=DIRECTION('',(0.,0.,1.));
#657=DIRECTION('',(1.,0.,0.));
#658=DIRECTION('',(0.,0.,1.));
#659=DIRECTION('',(1.,0.,0.));
#660=CARTESIAN_POINT('',(0.,0.,0.));
#661=CARTESIAN_POINT('',(-89.4875961733781,-62.9041719883625,34.6272775025382));
#662=CARTESIAN_POINT('',(-89.4875961733781,-62.9041719883625,0.));
#663=CARTESIAN_POINT('',(-89.4875961733781,-62.9041719883625,0.));
#664=CARTESIAN_POINT('',(-89.4875961733781,65.400615757933,0.));
#665=CARTESIAN_POINT('',(-89.4875961733781,-62.9041719883625,34.6272775025382));
#666=CARTESIAN_POINT('',(-89.4875961733781,-62.9041719883625,34.6272775025382));
#667=CARTESIAN_POINT('',(-89.4875961733781,-62.9041719883625,34.6272775025382));
#668=CARTESIAN_POINT('',(-89.4875961733781,65.400615757933,34.6272775025382));
#669=CARTESIAN_POINT('',(-89.4875961733781,65.400615757933,34.6272775025382));
#670=CARTESIAN_POINT('',(-89.4875961733781,65.400615757933,34.6272775025382));
#671=CARTESIAN_POINT('',(-89.4875961733781,65.400615757933,0.));
#672=CARTESIAN_POINT('',(84.5520468077203,65.400615757933,0.));
#673=CARTESIAN_POINT('',(-89.4875961733781,65.400615757933,34.6272775025382));
#674=CARTESIAN_POINT('',(84.5520468077203,65.400615757933,34.6272775025382));
#675=CARTESIAN_POINT('',(84.5520468077203,65.400615757933,34.6272775025382));
#676=CARTESIAN_POINT('',(84.5520468077203,65.400615757933,34.6272775025382));
#677=CARTESIAN_POINT('',(84.5520468077203,65.400615757933,0.));
#678=CARTESIAN_POINT('',(84.5520468077203,-62.9041719883625,0.));
#679=CARTESIAN_POINT('',(84.5520468077203,65.400615757933,34.6272775025382));
#680=CARTESIAN_POINT('',(84.5520468077203,-62.9041719883625,34.6272775025382));
#681=CARTESIAN_POINT('',(84.5520468077203,-62.9041719883625,34.6272775025382));
#682=CARTESIAN_POINT('',(84.5520468077203,-62.9041719883625,34.6272775025382));
#683=CARTESIAN_POINT('',(84.5520468077203,-62.9041719883625,0.));
#684=CARTESIAN_POINT('',(84.5520468077203,-62.9041719883625,34.6272775025382));
#685=CARTESIAN_POINT('',(0.,0.,34.6272775025382));
#686=CARTESIAN_POINT('',(62.8260918129314,-34.2031546458567,34.6272775025382));
#687=CARTESIAN_POINT('',(67.8260918129314,-34.2031546458567,34.6272775025382));
#688=CARTESIAN_POINT('',(-66.828079732628,-25.3854652222587,34.6272775025382));
#689=CARTESIAN_POINT('',(-61.828079732628,-25.3854652222587,34.6272775025382));
#690=CARTESIAN_POINT('',(45.5997463372452,34.5001331324476,34.6272775025382));
#691=CARTESIAN_POINT('',(50.5997463372452,34.5001331324476,34.6272775025382));
#692=CARTESIAN_POINT('',(-68.0193623316579,37.3822263012464,34.6272775025382));
#693=CARTESIAN_POINT('',(-63.0193623316579,37.3822263012464,34.6272775025382));
#694=CARTESIAN_POINT('',(0.,0.,0.));
#695=CARTESIAN_POINT('',(62.8260918129314,-34.2031546458567,0.));
#696=CARTESIAN_POINT('',(57.8260918129314,-34.2031546458567,0.));
#697=CARTESIAN_POINT('',(-66.828079732628,-25.3854652222587,0.));
#698=CARTESIAN_POINT('',(-71.828079732628,-25.3854652222587,0.));
#699=CARTESIAN_POINT('',(45.5997463372452,34.5001331324476,0.));
#700=CARTESIAN_POINT('',(40.5997463372452,34.5001331324476,0.));
#701=CARTESIAN_POINT('',(-68.0193623316579,37.3822263012464,0.));
#702=CARTESIAN_POINT('',(-73.0193623316579,37.3822263012464,0.));
#703=CARTESIAN_POINT('',(-68.0193623316579,37.3822263012464,-184.349808592898));
#704=CARTESIAN_POINT('',(45.5997463372452,34.5001331324476,-184.349808592898));
#705=CARTESIAN_POINT('',(-66.828079732628,-25.3854652222587,-184.349808592898));
#706=CARTESIAN_POINT('',(62.8260918129314,-34.2031546458567,-184.349808592898));
#707=CARTESIAN_POINT('',(0.,0.,0.));
#708=CARTESIAN_POINT('',(0.,0.,0.));
#709=CARTESIAN_POINT('',(0.,0.,34.6272775025382));
#710=CARTESIAN_POINT('',(-89.4875961733781,-62.9041719883625,34.6272775025382));
#711=CARTESIAN_POINT('',(-89.4875961733781,-62.9041719883625,34.6272775025382));
#712=CARTESIAN_POINT('',(-89.4875961733781,65.400615757933,34.6272775025382));
#713=CARTESIAN_POINT('',(84.5520468077203,-62.9041719883625,34.6272775025382));
#714=CARTESIAN_POINT('',(84.5520468077203,-62.9041719883625,34.6272775025382));
#715=CARTESIAN_POINT('',(84.5520468077203,65.400615757933,34.6272775025382));
#716=CARTESIAN_POINT('',(84.5520468077203,65.400615757933,34.6272775025382));
#717=CARTESIAN_POINT('',(-89.4875961733781,65.400615757933,34.6272775025382));
#718=CARTESIAN_POINT('',(-68.0193623316579,37.3822263012464,34.6272775025382));
#719=CARTESIAN_POINT('',(-63.0193623316579,37.3822263012464,34.6272775025382));
#720=CARTESIAN_POINT('',(45.5997463372452,34.5001331324476,34.6272775025382));
#721=CARTESIAN_POINT('',(50.5997463372452,34.5001331324476,34.6272775025382));
#722=CARTESIAN_POINT('',(-66.828079732628,-25.3854652222587,34.6272775025382));
#723=CARTESIAN_POINT('',(-61.828079732628,-25.3854652222587,34.6272775025382));
#724=CARTESIAN_POINT('',(62.8260918129314,-34.2031546458567,34.6272775025382));
#725=CARTESIAN_POINT('',(67.8260918129314,-34.2031546458567,34.6272775025382));
#726=CARTESIAN_POINT('',(-33.9527178490486,47.2971310872775,34.6272775025382));
#727=CARTESIAN_POINT('',(-33.9527178490486,47.2971310872775,34.6272775025382));
#728=CARTESIAN_POINT('',(-33.9527178490486,-41.3124709788165,34.6272775025382));
#729=CARTESIAN_POINT('',(-1.34003892852924,47.2971310872775,34.6272775025382));
#730=CARTESIAN_POINT('',(-1.34003892852924,47.2971310872775,34.6272775025382));
#731=CARTESIAN_POINT('',(-1.34003892852924,-41.3124709788165,34.6272775025382));
#732=CARTESIAN_POINT('',(-1.34003892852924,-41.3124709788165,34.6272775025382));
#733=CARTESIAN_POINT('',(-33.9527178490486,-41.3124709788165,34.6272775025382));
#734=CARTESIAN_POINT('',(-89.4875961733781,-62.9041719883625,34.6272775025382));
#735=CARTESIAN_POINT('',(-89.4875961733781,-62.9041719883625,0.));
#736=CARTESIAN_POINT('',(-89.4875961733781,-62.9041719883625,0.));
#737=CARTESIAN_POINT('',(-89.4875961733781,65.400615757933,0.));
#738=CARTESIAN_POINT('',(-89.4875961733781,-62.9041719883625,34.6272775025382));
#739=CARTESIAN_POINT('',(-89.4875961733781,65.400615757933,34.6272775025382));
#740=CARTESIAN_POINT('',(-89.4875961733781,65.400615757933,34.6272775025382));
#741=CARTESIAN_POINT('',(-89.4875961733781,65.400615757933,0.));
#742=CARTESIAN_POINT('',(84.5520468077203,65.400615757933,0.));
#743=CARTESIAN_POINT('',(84.5520468077203,65.400615757933,34.6272775025382));
#744=CARTESIAN_POINT('',(84.5520468077203,65.400615757933,34.6272775025382));
#745=CARTESIAN_POINT('',(84.5520468077203,65.400615757933,0.));
#746=CARTESIAN_POINT('',(84.5520468077203,-62.9041719883625,0.));
#747=CARTESIAN_POINT('',(84.5520468077203,-62.9041719883625,34.6272775025382));
#748=CARTESIAN_POINT('',(84.5520468077203,-62.9041719883625,34.6272775025382));
#749=CARTESIAN_POINT('',(84.5520468077203,-62.9041719883625,0.));
#750=CARTESIAN_POINT('',(0.,0.,0.));
#751=CARTESIAN_POINT('',(62.8260918129314,-34.2031546458567,0.));
#752=CARTESIAN_POINT('',(57.8260918129314,-34.2031546458567,0.));
#753=CARTESIAN_POINT('',(-66.828079732628,-25.3854652222587,0.));
#754=CARTESIAN_POINT('',(-71.828079732628,-25.3854652222587,0.));
#755=CARTESIAN_POINT('',(45.5997463372452,34.5001331324476,0.));
#756=CARTESIAN_POINT('',(40.5997463372452,34.5001331324476,0.));
#757=CARTESIAN_POINT('',(-68.0193623316579,37.3822263012464,0.));
#758=CARTESIAN_POINT('',(-73.0193623316579,37.3822263012464,0.));
#759=CARTESIAN_POINT('',(-68.0193623316579,37.3822263012464,-184.349808592898));
#760=CARTESIAN_POINT('',(45.5997463372452,34.5001331324476,-184.349808592898));
#761=CARTESIAN_POINT('',(-66.828079732628,-25.3854652222587,-184.349808592898));
#762=CARTESIAN_POINT('',(62.8260918129314,-34.2031546458567,-184.349808592898));
#763=CARTESIAN_POINT('',(-33.9527178490486,47.2971310872775,97.8900200672928));
#764=CARTESIAN_POINT('',(-33.9527178490486,-41.3124709788165,97.8900200672928));
#765=CARTESIAN_POINT('',(-33.9527178490486,-41.3124709788165,97.8900200672928));
#766=CARTESIAN_POINT('',(-33.9527178490486,47.2971310872775,97.8900200672928));
#767=CARTESIAN_POINT('',(-33.9527178490486,47.2971310872775,97.8900200672928));
#768=CARTESIAN_POINT('',(-33.9527178490486,47.2971310872775,97.8900200672928));
#769=CARTESIAN_POINT('',(-33.9527178490486,-41.3124709788165,97.8900200672928));
#770=CARTESIAN_POINT('',(-1.34003892852924,-41.3124709788165,97.8900200672928));
#771=CARTESIAN_POINT('',(-1.34003892852924,-41.3124709788165,97.8900200672928));
#772=CARTESIAN_POINT('',(-33.9527178490486,-41.3124709788165,97.8900200672928));
#773=CARTESIAN_POINT('',(-1.34003892852924,-41.3124709788165,97.8900200672928));
#774=CARTESIAN_POINT('',(-1.34003892852924,47.2971310872775,97.8900200672928));
#775=CARTESIAN_POINT('',(-1.34003892852924,47.2971310872775,97.8900200672928));
#776=CARTESIAN_POINT('',(-1.34003892852924,-41.3124709788165,97.8900200672928));
#777=CARTESIAN_POINT('',(-1.34003892852924,47.2971310872775,97.8900200672928));
#778=CARTESIAN_POINT('',(-1.34003892852924,47.2971310872775,97.8900200672928));
#779=CARTESIAN_POINT('',(0.,0.,97.8900200672928));
#780=CARTESIAN_POINT('',(0.,0.,0.));
#781=CARTESIAN_POINT('',(-65.4204923896756,18.3821856228165,93.8091613323754));
#782=MECHANICAL_DESIGN_GEOMETRIC_PRESENTATION_REPRESENTATION('',(#462,#463),
#783);
#783=(
GEOMETRIC_REPRESENTATION_CONTEXT(3)
GLOBAL_UNCERTAINTY_ASSIGNED_CONTEXT((#786))
GLOBAL_UNIT_ASSIGNED_CONTEXT((#791,#790,#789))
REPRESENTATION_CONTEXT('Asm1','TOP_LEVEL_ASSEMBLY_PART')
);
#784=(
GEOMETRIC_REPRESENTATION_CONTEXT(3)
GLOBAL_UNCERTAINTY_ASSIGNED_CONTEXT((#787))
GLOBAL_UNIT_ASSIGNED_CONTEXT((#791,#790,#789))
REPRESENTATION_CONTEXT('Part2','COMPONENT_PART')
);
#785=(
GEOMETRIC_REPRESENTATION_CONTEXT(3)
GLOBAL_UNCERTAINTY_ASSIGNED_CONTEXT((#788))
GLOBAL_UNIT_ASSIGNED_CONTEXT((#791,#790,#789))
REPRESENTATION_CONTEXT('Part3','COMPONENT_PART')
);
#786=UNCERTAINTY_MEASURE_WITH_UNIT(LENGTH_MEASURE(0.005),#791,
'DISTANCE_ACCURACY_VALUE','Maximum Tolerance applied to model');
#787=UNCERTAINTY_MEASURE_WITH_UNIT(LENGTH_MEASURE(0.005),#791,
'DISTANCE_ACCURACY_VALUE','Maximum Tolerance applied to model');
#788=UNCERTAINTY_MEASURE_WITH_UNIT(LENGTH_MEASURE(0.005),#791,
'DISTANCE_ACCURACY_VALUE','Maximum Tolerance applied to model');
#789=(
NAMED_UNIT(*)
SI_UNIT($,.STERADIAN.)
SOLID_ANGLE_UNIT()
);
#790=(
NAMED_UNIT(*)
PLANE_ANGLE_UNIT()
SI_UNIT($,.RADIAN.)
);
#791=(
LENGTH_UNIT()
NAMED_UNIT(*)
SI_UNIT(.MILLI.,.METRE.)
);
#792=PRODUCT_DEFINITION_SHAPE('','',#797);
#793=PRODUCT_DEFINITION_SHAPE('','',#798);
#794=PRODUCT_DEFINITION_SHAPE(' ','NAUO PRDDFN',#12);
#795=PRODUCT_DEFINITION_SHAPE('','',#799);
#796=PRODUCT_DEFINITION_SHAPE(' ','NAUO PRDDFN',#13);
#797=PRODUCT_DEFINITION('','',#803,#800);
#798=PRODUCT_DEFINITION('','',#804,#801);
#799=PRODUCT_DEFINITION('','',#805,#802);
#800=PRODUCT_DEFINITION_CONTEXT('',#819,'design');
#801=PRODUCT_DEFINITION_CONTEXT('',#819,'design');
#802=PRODUCT_DEFINITION_CONTEXT('',#819,'design');
#803=PRODUCT_DEFINITION_FORMATION_WITH_SPECIFIED_SOURCE('','',#809,
 .NOT_KNOWN.);
#804=PRODUCT_DEFINITION_FORMATION_WITH_SPECIFIED_SOURCE('','',#810,
 .NOT_KNOWN.);
#805=PRODUCT_DEFINITION_FORMATION_WITH_SPECIFIED_SOURCE('','',#811,
 .NOT_KNOWN.);
#806=PRODUCT_RELATED_PRODUCT_CATEGORY('','',(#809));
#807=PRODUCT_RELATED_PRODUCT_CATEGORY('','',(#810));
#808=PRODUCT_RELATED_PRODUCT_CATEGORY('','',(#811));
#809=PRODUCT('Asm1','Asm1','Asm1',(#815));
#810=PRODUCT('Part2','Part2','Part2',(#816));
#811=PRODUCT('Part3','Part3','Part3',(#817));
#812=PRODUCT_CATEGORY('','');
#813=PRODUCT_CATEGORY('','');
#814=PRODUCT_CATEGORY('','');
#815=PRODUCT_CONTEXT('',#819,'mechanical');
#816=PRODUCT_CONTEXT('',#819,'mechanical');
#817=PRODUCT_CONTEXT('',#819,'mechanical');
#818=APPLICATION_PROTOCOL_DEFINITION('international standard',
'ap242_managed_model_based_3d_engineering',2011,#819);
#819=APPLICATION_CONTEXT('managed model based 3d engineering');
ENDSEC;
END-ISO-10303-21;
